<svg width="24" height="24" fill="none" xmlns="http://www.w3.org/2000/svg"><path fill-rule="evenodd" clip-rule="evenodd" d="M2 10a3 3 0 0 1 3-3h14a3 3 0 0 1 3 3v8a3 3 0 0 1-3 3H5a3 3 0 0 1-3-3v-8zm3-1a1 1 0 0 0-1 1v8a1 1 0 0 0 1 1h14a1 1 0 0 0 1-1v-8a1 1 0 0 0-1-1H5z" fill="#000"/><path d="M13 13a1 1 0 1 1-2 0 1 1 0 0 1 2 0z" fill="#000"/><path fill-rule="evenodd" clip-rule="evenodd" d="M21 17H3v-2h18v2zM10.294 6.019C10.011 6.68 10 7.483 10 8H8v-.032c0-.501 0-1.671.456-2.737.241-.563.626-1.136 1.234-1.564C10.305 3.234 11.076 3 12 3c.924 0 1.695.234 2.31.667.608.428.993 1 1.234 1.564.457 1.066.456 2.236.456 2.737V8h-2c0-.517-.01-1.32-.294-1.981-.134-.312-.312-.551-.547-.717C12.929 5.141 12.576 5 12 5c-.576 0-.93.141-1.159.302-.235.166-.413.405-.547.717z" fill="#000"/></svg>