<?xml version="1.0" encoding="utf-8"?>
<svg fill="#000000" width="800px" height="800px" viewBox="-200 -200 2600 2600" xmlns="http://www.w3.org/2000/svg">
  <path d="M 652.2 697.8 L 652.2 2017 L 174 2017 L 174 697.8 L 652.2 697.8 Z M 1373.1 695.3 L 1373.1 773 C 1442.9 728 1523.4 701.8 1645.5 701.8 C 2043 701.8 2094 1010.5 2094 1279.4 L 2094 2017 L 1613.4 2017 L 1613.4 1316.1 C 1613.4 1198.3 1571.2 1175.9 1493.2 1175.9 C 1419.1 1175.9 1373.1 1199.5 1373.1 1316.1 L 1373.1 2017 L 892.5 2017 L 892.5 695.3 L 1373.1 695.3 Z M 413.1 97 C 545 97 652.2 204.3 652.2 336.1 C 652.2 467.9 545 575.2 413.1 575.2 C 281.3 575.2 174 467.9 174 336.1 C 174 204.3 281.3 97 413.1 97 Z" fill-rule="evenodd"/>
</svg>