<svg xmlns="http://www.w3.org/2000/svg" viewBox="0 0 32 32"><path d="m4.35 14.29 9.4 5.13a4.65 4.65 0 0 0 4.5 0 1 1 0 1 0-1-1.75 2.69 2.69 0 0 1-2.58 0l-9.4-5.13a.63.63 0 0 1 0-1.08l9.4-5.13a2.69 2.69 0 0 1 2.58 0l9.4 5.13a.63.63 0 0 1 0 1.08l-5.17 2.82a1 1 0 1 0 1 1.75l5.17-2.82a2.62 2.62 0 0 0 0-4.58l-9.4-5.13a4.62 4.62 0 0 0-4.5 0l-9.4 5.13a2.62 2.62 0 0 0 0 4.58z"/><path d="m27.55 16.52-10.1 5.13a3.19 3.19 0 0 1-2.9 0l-10.1-5.13a1 1 0 0 0-.9 1.78l10.09 5.14a5.25 5.25 0 0 0 4.72 0l10.09-5.14a1 1 0 1 0-.9-1.78z"/><path d="m27.55 20.52-10.1 5.13a3.19 3.19 0 0 1-2.9 0l-10.1-5.13a1 1 0 0 0-.9 1.78l10.09 5.14a5.25 5.25 0 0 0 4.72 0l10.09-5.14a1 1 0 1 0-.9-1.78z"/></svg>